<svg id="CAR-SERVICES-ICONS-VOL._2" data-name="CAR-SERVICES-ICONS-VOL. 2" xmlns="http://www.w3.org/2000/svg" viewBox="0 0 512 512"><title>Artboard 31</title><g id="_-19" data-name="-19"><path d="M410.8,344.56l-16.38-4.28a2,2,0,0,1-1.35-1.66l-.3-5.61a2,2,0,0,1,1.15-1.8l15.79-6.12a1.71,1.71,0,0,0,1-1.79L409.12,316a1.69,1.69,0,0,0-1.66-1.23l-16.86,1a1.88,1.88,0,0,1-1.77-1.17l-2-5.2a2,2,0,0,1,.54-2.11l13.16-10.71a1.69,1.69,0,0,0,.38-2l-3.71-6.46a1.69,1.69,0,0,0-2-.64l-15.74,6.26a1.88,1.88,0,0,1-2.07-.56l-3.5-4.34a2,2,0,0,1-.11-2.18L383,272.43a1.66,1.66,0,0,0-.22-2l-5.52-5a1.7,1.7,0,0,0-2,0l-13.09,10.86a1.88,1.88,0,0,1-2.13.11l-4.69-3a1.94,1.94,0,0,1-.75-2l4.36-16.47a1.67,1.67,0,0,0-.82-1.87s-1.82-.9-3.36-1.58-3.43-1.42-3.43-1.42a1.63,1.63,0,0,0-1.93.62L340.33,265a2,2,0,0,1-2,.76l-5.37-1.42a1.92,1.92,0,0,1-1.33-1.68l-.88-17a1.7,1.7,0,0,0-1.4-1.49l-7.33-.75a1.61,1.61,0,0,0-1.65,1.21l-4.27,16.51a2,2,0,0,1-1.66,1.38l-5.56.29a2,2,0,0,1-1.8-1.19L301,245.69a1.69,1.69,0,0,0-1.77-1L292,246.3a1.66,1.66,0,0,0-1.15,1.63l1,17a1.92,1.92,0,0,1-1.14,1.8l-5.17,2a1.89,1.89,0,0,1-2.06-.57L272.81,255a1.66,1.66,0,0,0-2-.38l-6.4,3.73a1.66,1.66,0,0,0-.63,1.93l6.15,15.87a1.88,1.88,0,0,1-.51,2.08l-4.31,3.57a2,2,0,0,1-2.09.12l-14.24-9.3a1.67,1.67,0,0,0-2,.23l-4.88,5.56a1.62,1.62,0,0,0,0,2.06l10.75,13.15a2.08,2.08,0,0,1,.15,2.17l-3,4.72a2,2,0,0,1-2,.76l-16.33-4.42a1.74,1.74,0,0,0-1.87.87s-.84,1.84-1.52,3.37-1.45,3.44-1.45,3.44a1.76,1.76,0,0,0,.64,2l14.27,9.17a2,2,0,0,1,.77,2l-1.44,5.42a1.88,1.88,0,0,1-1.66,1.36l-9.2.49a1.65,1.65,0,0,0,.79-1.69L229.16,316a1.68,1.68,0,0,0-1.65-1.21l-16.88,1a1.91,1.91,0,0,1-1.79-1.2l-2-5.18a1.94,1.94,0,0,1,.55-2.09l13.11-10.74a1.58,1.58,0,0,0,.4-2l-3.69-6.47a1.67,1.67,0,0,0-1.95-.63l-15.74,6.24a1.91,1.91,0,0,1-2.05-.56l-3.54-4.33a2.11,2.11,0,0,1-.12-2.18L203,272.43a1.74,1.74,0,0,0-.27-2l-5.51-4.94a1.56,1.56,0,0,0-2,0L182.19,276.3a1.94,1.94,0,0,1-2.15.1l-4.65-3a1.93,1.93,0,0,1-.8-2L179,254.9a1.67,1.67,0,0,0-.86-1.9s-1.79-.88-3.32-1.58-3.41-1.44-3.41-1.44a1.65,1.65,0,0,0-1.94.67L160.34,265a1.92,1.92,0,0,1-2,.8L153,264.4a2.05,2.05,0,0,1-1.36-1.69l-.87-17a1.7,1.7,0,0,0-1.39-1.51L142,243.4a1.67,1.67,0,0,0-1.65,1.2l-4.24,16.54a2,2,0,0,1-1.67,1.35l-5.54.31a1.93,1.93,0,0,1-1.8-1.17L121,245.72a1.63,1.63,0,0,0-1.77-1l-7.18,1.59a1.63,1.63,0,0,0-1.22,1.66l1,17a1.92,1.92,0,0,1-1.12,1.82l-5.17,2a2,2,0,0,1-2.11-.53L92.8,255a1.68,1.68,0,0,0-2-.39l-6.37,3.74a1.64,1.64,0,0,0-.64,1.92L90,276.19a2,2,0,0,1-.54,2.07l-4.32,3.56a2,2,0,0,1-2.15.13l-14.2-9.29a1.59,1.59,0,0,0-2,.21l-4.92,5.55a1.72,1.72,0,0,0,0,2.06l10.74,13.17a1.88,1.88,0,0,1,.13,2.14l-3,4.73a1.91,1.91,0,0,1-2,.77l-16.36-4.38a1.65,1.65,0,0,0-1.86.82s-.89,1.82-1.56,3.4-1.4,3.42-1.4,3.42a1.73,1.73,0,0,0,.62,2l14.24,9.15a1.92,1.92,0,0,1,.81,2l-1.43,5.44a1.91,1.91,0,0,1-1.64,1.36l-16.9.91a1.58,1.58,0,0,0-1.48,1.38l-.77,7.4a1.65,1.65,0,0,0,1.16,1.66l16.42,4.29a2,2,0,0,1,1.35,1.63l.28,5.62a1.94,1.94,0,0,1-1.15,1.83l-15.79,6.1a1.66,1.66,0,0,0-1,1.8l1.53,7.25a1.7,1.7,0,0,0,1.65,1.2l16.9-1a2,2,0,0,1,1.81,1.17l2,5.24a1.9,1.9,0,0,1-.52,2L51.52,383.76a1.67,1.67,0,0,0-.38,2l3.71,6.43a1.59,1.59,0,0,0,1.91.64l15.75-6.23a2,2,0,0,1,2,.55l3.52,4.33a2,2,0,0,1,.13,2.17L69,407.95a1.73,1.73,0,0,0,.23,2.08L74.71,415a1.73,1.73,0,0,0,2.07,0l13.06-10.87A2,2,0,0,1,92,404l4.67,3a2,2,0,0,1,.76,2L93,425.5a1.69,1.69,0,0,0,.85,1.88s1.81.91,3.33,1.58,3.42,1.42,3.42,1.42a1.62,1.62,0,0,0,1.95-.63l9.11-14.38a1.89,1.89,0,0,1,2-.76L119,416a2,2,0,0,1,1.4,1.67l.85,17a1.62,1.62,0,0,0,1.39,1.5L130,437a1.7,1.7,0,0,0,1.66-1.22l4.23-16.51a1.91,1.91,0,0,1,1.67-1.34l5.53-.34a1.94,1.94,0,0,1,1.8,1.18L151,434.67a1.59,1.59,0,0,0,1.77,1l7.2-1.59a1.63,1.63,0,0,0,1.21-1.65l-1-17a1.89,1.89,0,0,1,1.15-1.85l5.16-2a2,2,0,0,1,2.1.59l10.62,13.21a1.69,1.69,0,0,0,2,.41l6.39-3.72a1.73,1.73,0,0,0,.64-1.94l-6.17-15.88a1.93,1.93,0,0,1,.53-2.09l4.3-3.55a1.92,1.92,0,0,1,2.14-.13l14.2,9.27a1.63,1.63,0,0,0,2-.21l4.94-5.55a1.66,1.66,0,0,0,0-2l-10.72-13.19a1.91,1.91,0,0,1-.13-2.15l3-4.71a1.89,1.89,0,0,1,2-.78l16.35,4.41a1.61,1.61,0,0,0,1.83-.88s.9-1.8,1.57-3.33,1.42-3.46,1.42-3.46a1.73,1.73,0,0,0-.63-2l-14.25-9.16a1.91,1.91,0,0,1-.79-2l1.42-5.45a2,2,0,0,1,1.66-1.35l9.2-.48a1.65,1.65,0,0,0-.75,1.66l1.55,7.25a1.64,1.64,0,0,0,1.65,1.23l16.88-1.05a2,2,0,0,1,1.8,1.19l2,5.21a1.91,1.91,0,0,1-.55,2.08l-13.13,10.74a1.68,1.68,0,0,0-.39,2l3.72,6.43a1.6,1.6,0,0,0,1.91.65l15.75-6.22a1.89,1.89,0,0,1,2.08.54l3.5,4.35a1.93,1.93,0,0,1,.13,2.13L249,408a1.69,1.69,0,0,0,.28,2l5.49,4.95a1.62,1.62,0,0,0,2,0l13.11-10.85A2,2,0,0,1,272,404l4.66,3.06a1.94,1.94,0,0,1,.78,2L273,425.52a1.67,1.67,0,0,0,.85,1.87s1.8.9,3.33,1.56,3.42,1.46,3.42,1.46a1.63,1.63,0,0,0,1.93-.66l9.13-14.38a1.89,1.89,0,0,1,2-.76l5.38,1.42a2,2,0,0,1,1.34,1.66l.88,17.07a1.67,1.67,0,0,0,1.37,1.47L310,437a1.7,1.7,0,0,0,1.65-1.18l4.26-16.53a2,2,0,0,1,1.66-1.38l5.52-.29a1.93,1.93,0,0,1,1.83,1.17L331,434.7a1.68,1.68,0,0,0,1.78,1l7.19-1.58a1.65,1.65,0,0,0,1.2-1.66l-1-17a1.91,1.91,0,0,1,1.15-1.81l5.18-2a1.94,1.94,0,0,1,2.06.55l10.64,13.24a1.58,1.58,0,0,0,2,.43l6.37-3.77a1.61,1.61,0,0,0,.65-1.92L362,404.21a2,2,0,0,1,.52-2.07l4.33-3.54a1.91,1.91,0,0,1,2.13-.12l14.2,9.28a1.68,1.68,0,0,0,2-.26l4.87-5.53a1.66,1.66,0,0,0,0-2l-10.77-13.2a2,2,0,0,1-.12-2.16l3-4.7a1.92,1.92,0,0,1,2-.77l16.37,4.42a1.7,1.7,0,0,0,1.83-.87s.88-1.83,1.6-3.37,1.37-3.45,1.37-3.45a1.68,1.68,0,0,0-.62-2l-14.27-9.16a2,2,0,0,1-.76-2l1.4-5.39a2,2,0,0,1,1.67-1.35l16.9-.9a1.68,1.68,0,0,0,1.51-1.4l.72-7.4A1.7,1.7,0,0,0,410.8,344.56ZM83.07,354a18.08,18.08,0,1,1,20.05-15.71A18.09,18.09,0,0,1,83.07,354Zm40.46,35.14a17.84,17.84,0,0,1-25.11,3.51A18.22,18.22,0,0,1,95,367.28a17.88,17.88,0,0,1,25.11-3.49A18.17,18.17,0,0,1,123.53,389.13Zm-1.33-78.6a17.91,17.91,0,0,1-23.5-9.64,18.14,18.14,0,0,1,9.57-23.68,17.91,17.91,0,0,1,23.5,9.63A18.19,18.19,0,0,1,122.19,310.53ZM154.72,289a17.86,17.86,0,0,1,25.14-3.5,18.21,18.21,0,0,1,3.43,25.36,17.9,17.9,0,0,1-25.14,3.46A18.21,18.21,0,0,1,154.72,289ZM164,400.91a17.88,17.88,0,0,1-23.49-9.66,18.13,18.13,0,0,1,9.57-23.66,17.91,17.91,0,0,1,23.49,9.64A18.16,18.16,0,0,1,164,400.91Zm40.71-50.54a17.93,17.93,0,1,1-15.55-20.2A18,18,0,0,1,204.73,350.37Zm33.35-1.18-6.65,2.57.56-5.52a1.61,1.61,0,0,0-1.18-1.66l-16.39-4.28a2,2,0,0,1-1.33-1.66l-.31-5.59a1.93,1.93,0,0,1,1.16-1.83l6.62-2.57-.56,5.51a1.66,1.66,0,0,0,1.18,1.67l16.38,4.29a1.93,1.93,0,0,1,1.36,1.66l.34,5.59A2,2,0,0,1,238.08,349.19Zm91.74-66.46a58.9,58.9,0,0,1,39,34.71,61.11,61.11,0,0,1,4,31.84A53.34,53.34,0,0,0,330,333.81a16.34,16.34,0,0,0-16.36-9.87A50.39,50.39,0,0,1,329.83,282.73Zm-36,4.62a59.87,59.87,0,0,1,31.6-4A54.17,54.17,0,0,0,310.1,326.6a16.51,16.51,0,0,0-9.82,16.46,49.42,49.42,0,0,1-40.83-16.37A59.06,59.06,0,0,1,293.84,287.35ZM303,397.68A58.76,58.76,0,0,1,264,363a61.11,61.11,0,0,1-4-31.83,53.41,53.41,0,0,0,42.9,15.46,16.31,16.31,0,0,0,16.35,9.88A50.42,50.42,0,0,1,303,397.68ZM339,393a59.27,59.27,0,0,1-31.6,4,54.32,54.32,0,0,0,15.34-43.29,16.37,16.37,0,0,0,9.81-16.43,49.46,49.46,0,0,1,40.85,16.35A58.79,58.79,0,0,1,339,393ZM470.8,175.17l-16.36-4.29a2,2,0,0,1-1.36-1.65l-.32-5.62a2,2,0,0,1,1.18-1.8l15.79-6.12a1.62,1.62,0,0,0,.95-1.78l-1.55-7.3a1.53,1.53,0,0,0-1.64-1.17l-16.88,1a1.86,1.86,0,0,1-1.77-1.18l-2-5.19a2,2,0,0,1,.53-2.1l13.13-10.73a1.66,1.66,0,0,0,.4-2l-3.73-6.43a1.59,1.59,0,0,0-1.93-.64l-15.75,6.21a1.81,1.81,0,0,1-2-.52l-3.55-4.36a1.92,1.92,0,0,1-.07-2.15L443,103a1.62,1.62,0,0,0-.21-2L437.29,96a1.6,1.6,0,0,0-2,0l-13.07,10.84A2,2,0,0,1,420,107l-4.67-3a1.92,1.92,0,0,1-.78-2l4.4-16.5a1.76,1.76,0,0,0-.85-1.86s-1.81-.88-3.37-1.56-3.42-1.44-3.42-1.44a1.61,1.61,0,0,0-1.92.64l-9.12,14.38a1.88,1.88,0,0,1-2,.75L393,95a1.82,1.82,0,0,1-1.33-1.65l-.92-17.07a1.66,1.66,0,0,0-1.39-1.49L382,74a1.66,1.66,0,0,0-1.63,1.17l-4.25,16.54a2,2,0,0,1-1.65,1.37l-5.56.32a2,2,0,0,1-1.81-1.19L361,76.28a1.68,1.68,0,0,0-1.78-1L352,76.89a1.69,1.69,0,0,0-1.23,1.64l1,17a1.92,1.92,0,0,1-1.17,1.81l-5.15,2a1.94,1.94,0,0,1-2.08-.52L332.78,85.57a1.64,1.64,0,0,0-2-.36L324.42,89a1.62,1.62,0,0,0-.64,1.92L330,106.76a2,2,0,0,1-.53,2.1l-4.3,3.53a1.9,1.9,0,0,1-2.15.12l-14.23-9.28a1.58,1.58,0,0,0-2,.25L301.85,109a1.65,1.65,0,0,0,0,2l10.75,13.22a2,2,0,0,1,.14,2.16l-3,4.7a1.92,1.92,0,0,1-2,.77l-16.35-4.42a1.74,1.74,0,0,0-1.87.86s-.84,1.8-1.53,3.37-1.43,3.47-1.43,3.47a1.77,1.77,0,0,0,.62,2l14.28,9.16a2,2,0,0,1,.77,2l-1.45,5.41a1.83,1.83,0,0,1-1.64,1.38l-16.89.89a1.64,1.64,0,0,0-1.48,1.41l-.76,7.4a1.63,1.63,0,0,0,1.17,1.65l16.39,4.28a2,2,0,0,1,1.37,1.69l.32,5.59a2,2,0,0,1-1.18,1.81l-15.79,6.12a1.64,1.64,0,0,0-1,1.8l1.57,7.28a1.6,1.6,0,0,0,1.63,1.18l16.89-1a1.88,1.88,0,0,1,1.8,1.16l2,5.19a2,2,0,0,1-.57,2.08l-13.14,10.73a1.72,1.72,0,0,0-.4,2l3.72,6.41a1.61,1.61,0,0,0,1.93.66l15.74-6.24a2,2,0,0,1,2.07.55l3.49,4.33a2,2,0,0,1,.15,2.15L309,238.56a1.7,1.7,0,0,0,.26,2.06l5.51,4.94a1.62,1.62,0,0,0,2,0l13.08-10.86a2,2,0,0,1,2.12-.13l4.71,3a2,2,0,0,1,.74,2L333,256.12a1.69,1.69,0,0,0,.85,1.88s1.8.89,3.36,1.56,3.38,1.42,3.38,1.42a1.65,1.65,0,0,0,1.94-.6L351.68,246a1.85,1.85,0,0,1,2-.79l5.4,1.43a1.89,1.89,0,0,1,1.35,1.65l.89,17.05a1.65,1.65,0,0,0,1.35,1.51l7.36.74a1.67,1.67,0,0,0,1.62-1.2l4.29-16.5a1.87,1.87,0,0,1,1.65-1.37l5.53-.31a1.82,1.82,0,0,1,1.79,1.17L391,265.29a1.67,1.67,0,0,0,1.79,1l7.2-1.58a1.7,1.7,0,0,0,1.21-1.7l-1-17a2,2,0,0,1,1.13-1.81l5.19-2.05a2,2,0,0,1,2.09.58L419.22,256a1.57,1.57,0,0,0,2,.41l6.39-3.72a1.74,1.74,0,0,0,.64-2L422,234.85a2,2,0,0,1,.54-2.11l4.3-3.54a2,2,0,0,1,2.14-.13l14.21,9.3a1.66,1.66,0,0,0,2-.25l4.9-5.56a1.63,1.63,0,0,0,0-2l-10.73-13.19a1.87,1.87,0,0,1-.14-2.15l3-4.72a1.85,1.85,0,0,1,1.95-.77l16.4,4.42a1.64,1.64,0,0,0,1.81-.88s.9-1.85,1.56-3.37,1.43-3.42,1.43-3.42a1.71,1.71,0,0,0-.64-2l-14.25-9.18a2,2,0,0,1-.76-2l1.38-5.43a2,2,0,0,1,1.66-1.33l16.89-.9a1.74,1.74,0,0,0,1.54-1.41l.7-7.37A1.66,1.66,0,0,0,470.8,175.17ZM323.87,128.45l34.13,34a21.78,21.78,0,0,0-.9,2.32l-47.1-.69A72,72,0,0,1,323.87,128.45Zm.35,84.7a70.76,70.76,0,0,1-14.22-35l47.07-1.26c.11.42.26.79.41,1.21s.33.76.51,1.12Zm45.07,24.2a71.42,71.42,0,0,1-35.3-14l33.63-34.44c.77.34,1.56.66,2.37.93Zm-.52-85.25a10.36,10.36,0,0,0-1.13.55L334,118.6A67.64,67.64,0,0,1,350.32,109a69,69,0,0,1,18.41-4.8L370,151.68C369.55,151.84,369.15,151.93,368.78,152.1Zm13.89-47.85a70.82,70.82,0,0,1,35.33,14l-33.7,34.41c-.75-.32-1.51-.65-2.3-.92Zm19,128.3a70,70,0,0,1-18.4,4.8L382,189.91c.41-.13.79-.28,1.17-.41s.75-.36,1.1-.55L418,223A69.35,69.35,0,0,1,401.64,232.55Zm26.48-19.4L394,179.23c.35-.8.67-1.59.94-2.38l47.06.7A72.23,72.23,0,0,1,428.11,213.15Zm-33.19-48.4c-.12-.38-.24-.77-.4-1.18a10.45,10.45,0,0,0-.52-1.12l33.78-34A69.57,69.57,0,0,1,437.22,145,70.39,70.39,0,0,1,442,163.53Z"/></g></svg>